<svg width="16" height="12" viewBox="0 0 16 12" fill="none" xmlns="http://www.w3.org/2000/svg">
<path d="M6.5 6C6.5 6.39782 6.65804 6.77936 6.93934 7.06066C7.22064 7.34196 7.60218 7.5 8 7.5C8.39782 7.5 8.77936 7.34196 9.06066 7.06066C9.34196 6.77936 9.5 6.39782 9.5 6C9.5 5.60218 9.34196 5.22064 9.06066 4.93934C8.77936 4.65804 8.39782 4.5 8 4.5C7.60218 4.5 7.22064 4.65804 6.93934 4.93934C6.65804 5.22064 6.5 5.60218 6.5 6Z" stroke="#1C1D23" stroke-opacity="0.6" stroke-width="1.5" stroke-linecap="round" stroke-linejoin="round"/>
<path d="M14.75 6C12.95 9 10.7 10.5 8 10.5C5.3 10.5 3.05 9 1.25 6C3.05 3 5.3 1.5 8 1.5C10.7 1.5 12.95 3 14.75 6Z" stroke="#1C1D23" stroke-opacity="0.6" stroke-width="1.5" stroke-linecap="round" stroke-linejoin="round"/>
</svg>
