<svg width="18" height="18" viewBox="0 0 18 18" fill="none" xmlns="http://www.w3.org/2000/svg">
<path d="M9 13.875L6.75 12.75M6.75 12.75L2.25 15V5.25L6.75 3M6.75 12.75V3M6.75 3L11.25 5.25M11.25 5.25L15.75 3V8.625M11.25 5.25V9.375M14.25 13.5V13.5075M15.8408 15.0908C16.1555 14.7761 16.3698 14.3752 16.4567 13.9387C16.5436 13.5023 16.4991 13.0498 16.3288 12.6387C16.1585 12.2275 15.8701 11.876 15.5001 11.6288C15.1301 11.3815 14.695 11.2495 14.25 11.2495C13.805 11.2495 13.3699 11.3815 12.9999 11.6288C12.6299 11.876 12.3415 12.2275 12.1712 12.6387C12.0009 13.0498 11.9564 13.5023 12.0433 13.9387C12.1302 14.3752 12.3445 14.7761 12.6593 15.0908C12.9728 15.405 13.503 15.8745 14.25 16.5C15.0382 15.8325 15.5693 15.363 15.8408 15.0908Z" stroke="currentColor" stroke-width="1.5" stroke-linecap="round" stroke-linejoin="round"/>
</svg>
